<?xml version="1.0" standalone="no"?>
<!DOCTYPE svg PUBLIC "-//W3C//DTD SVG 20010904//EN"
 "http://www.w3.org/TR/2001/REC-SVG-20010904/DTD/svg10.dtd">
<svg version="1.0" xmlns="http://www.w3.org/2000/svg"
 width="512.000000pt" height="512.000000pt" viewBox="0 0 512.000000 512.000000"
 preserveAspectRatio="xMidYMid meet">
<metadata>
Created by potrace 1.16, written by Peter Selinger 2001-2019
</metadata>
<g transform="translate(0.000000,512.000000) scale(0.100000,-0.100000)"
fill="#000000" stroke="none">
<path d="M1518 4780 c-98 -16 -203 -68 -282 -140 l-41 -38 -55 14 c-80 21
-205 18 -283 -6 -214 -66 -365 -284 -356 -515 3 -95 2 -98 -67 -191 -79 -105
-116 -179 -144 -289 -29 -108 -29 -270 -1 -375 28 -102 26 -120 -15 -212 -42
-93 -70 -185 -79 -263 -6 -41 -11 -55 -24 -55 -27 0 -80 -38 -101 -72 -19 -31
-20 -51 -20 -324 0 -307 8 -395 51 -539 34 -115 59 -165 85 -171 66 -17 80 26
43 128 -36 97 -65 246 -73 368 l-6 94 118 -117 c82 -80 126 -117 142 -117 15
0 66 43 166 142 l144 142 143 -142 c81 -80 152 -142 162 -142 10 0 81 62 162
142 l143 142 143 -142 c85 -84 151 -142 163 -142 11 0 75 56 159 140 77 77
144 140 150 140 6 0 73 -63 150 -140 84 -84 148 -140 159 -140 12 0 78 58 163
142 l143 142 143 -142 c85 -84 151 -142 163 -142 11 0 75 56 159 140 77 77
144 140 150 140 6 0 73 -63 150 -140 84 -84 148 -140 159 -140 12 0 78 58 163
142 l143 142 143 -142 c85 -84 151 -142 163 -142 11 0 75 56 159 140 77 77
144 140 149 140 5 0 72 -63 149 -140 77 -77 146 -140 154 -140 8 0 71 52 139
116 l123 115 -6 -93 c-31 -545 -385 -977 -910 -1111 l-88 -22 -1405 0 -1405 0
-90 23 c-216 57 -393 156 -566 319 -37 35 -74 63 -83 63 -21 0 -56 -35 -56
-56 0 -22 112 -136 195 -198 229 -172 458 -253 742 -263 l152 -6 3 -208 c3
-228 5 -233 72 -283 27 -21 40 -21 598 -24 502 -2 573 -1 594 13 29 19 31 55
6 78 -17 15 -71 17 -571 17 -362 0 -559 4 -572 10 -17 10 -19 22 -19 145 l0
135 1000 0 1000 0 0 -135 c0 -123 -2 -135 -19 -145 -12 -6 -110 -10 -249 -10
-242 0 -242 0 -256 -47 -5 -15 -1 -28 14 -43 21 -21 28 -21 270 -18 233 3 250
4 276 24 67 50 69 55 72 283 l3 208 152 6 c172 6 295 32 443 92 351 141 634
447 744 805 52 168 60 244 60 564 0 273 -1 293 -20 324 -22 36 -74 72 -105 72
-19 0 -20 7 -20 98 0 90 -3 103 -32 163 -66 133 -184 210 -334 217 -101 5
-162 -11 -240 -64 l-51 -34 -32 25 c-50 38 -121 66 -188 73 l-61 7 -17 60
c-10 33 -20 67 -24 75 -4 11 81 102 287 308 l294 293 44 -23 c60 -31 168 -37
240 -13 70 24 149 101 172 169 35 103 17 217 -49 303 -33 44 -118 91 -175 99
l-47 6 -6 47 c-13 94 -95 193 -189 228 -54 20 -175 16 -227 -8 -55 -25 -115
-81 -142 -133 -42 -82 -41 -210 3 -285 l20 -35 -293 -292 -293 -293 -70 24
c-81 27 -197 45 -294 45 -80 0 -229 -18 -253 -32 -24 -12 -23 -60 1 -82 17
-16 27 -16 101 -5 101 14 292 7 375 -15 219 -59 370 -211 432 -436 22 -82 25
-322 4 -422 l-13 -68 -846 0 -845 0 6 108 c14 270 147 486 402 655 92 61 100
72 86 110 -16 42 -58 36 -144 -19 -40 -25 -82 -55 -94 -67 l-23 -20 0 65 c0
142 -72 328 -179 461 -68 84 -81 121 -74 210 15 179 -85 378 -243 482 -109 73
-263 105 -396 85z m245 -130 c118 -44 211 -138 258 -260 16 -42 23 -88 28
-190 8 -152 10 -158 95 -264 92 -115 141 -233 160 -387 5 -43 3 -48 -35 -90
-105 -115 -181 -241 -227 -374 -25 -73 -52 -212 -52 -266 l0 -39 -162 2 -163
3 -3 359 -2 360 180 181 c99 99 180 188 180 197 0 25 -28 48 -58 48 -21 0 -56
-30 -164 -137 l-138 -138 0 387 c0 373 -1 388 -19 398 -27 14 -47 13 -65 -6
-14 -14 -16 -93 -16 -717 l0 -701 -178 177 c-98 97 -185 177 -193 177 -28 0
-59 -31 -59 -58 0 -22 40 -67 215 -239 209 -207 215 -214 215 -253 l0 -40
-359 0 -359 0 13 58 c16 66 43 139 79 211 39 76 42 130 12 245 -63 239 -17
455 140 651 79 99 86 120 89 260 4 174 36 255 139 353 59 56 135 96 208 112
62 13 178 4 241 -20z m2752 -20 c56 -34 85 -94 85 -173 0 -86 10 -96 95 -95
54 1 71 -3 111 -28 106 -66 123 -207 35 -295 -71 -71 -174 -76 -256 -13 -25
19 -53 34 -63 34 -9 0 -157 -140 -328 -311 l-311 -311 -18 29 c-29 44 -115
131 -153 155 l-34 21 311 311 c184 184 311 319 311 330 0 10 -12 32 -27 50
-89 106 -61 249 62 308 51 24 131 19 180 -12z m-3495 -115 c0 -2 -12 -40 -26
-82 -22 -63 -27 -99 -29 -190 -1 -78 -6 -117 -16 -131 -8 -10 -36 -48 -63 -83
-57 -75 -118 -196 -147 -294 -41 -137 -37 -363 8 -510 l15 -51 -34 -74 c-40
-87 -72 -180 -88 -262 l-11 -58 -160 0 c-121 0 -159 3 -159 13 0 28 24 97 61
179 53 115 58 163 28 275 -56 215 -14 418 122 589 74 93 88 133 89 239 0 50 5
109 10 133 39 168 200 310 353 312 26 0 47 -2 47 -5z m3926 -1919 c17 -13 19
-29 22 -133 l3 -118 -130 -130 -131 -130 -143 143 c-87 87 -150 142 -162 142
-12 0 -75 -55 -162 -142 l-143 -142 -143 142 c-105 104 -150 142 -168 142 -17
0 -62 -38 -166 -142 l-143 -143 -143 143 c-87 87 -150 142 -162 142 -12 0 -75
-55 -162 -142 l-143 -143 -143 143 c-106 106 -149 142 -167 142 -18 0 -61 -36
-167 -142 l-143 -143 -143 143 c-87 87 -150 142 -162 142 -12 0 -75 -55 -162
-142 l-143 -143 -143 143 c-104 104 -149 142 -166 142 -18 0 -62 -37 -165
-140 l-141 -139 -141 139 c-103 102 -147 140 -165 140 -17 0 -62 -38 -166
-142 l-143 -143 -131 130 -130 130 3 118 c3 104 5 120 22 133 30 21 4742 21
4772 0z"/>
</g>
</svg>
